<svg width="55" height="49" viewBox="0 0 55 49" fill="none" xmlns="http://www.w3.org/2000/svg">
<path d="M54 38.5239V44.0715H1V38.5239C1 23.8884 12.8645 12.0239 27.5 12.0239C42.1355 12.0239 54 23.8884 54 38.5239Z" stroke="#EFEDEA" stroke-width="2"/>
<path d="M22.9219 3.92188C25.5469 4.00521 27.2188 4.04688 27.9375 4.04688C28.9167 4.04688 30.0156 4.02083 31.2344 3.96875C32.526 3.92708 33.3229 3.90625 33.625 3.90625C35.0833 3.90625 36.2865 4.05729 37.2344 4.35938C38.1927 4.66146 38.9844 5.21354 39.6094 6.01562C40.2344 6.81771 40.5469 7.78646 40.5469 8.92188C40.5469 9.85938 40.3281 10.7656 39.8906 11.6406C39.4531 12.5156 38.8438 13.2604 38.0625 13.875C37.2812 14.4896 36.4896 14.9323 35.6875 15.2031C34.8854 15.4635 34.0521 15.5938 33.1875 15.5938C32.5417 15.5938 31.8229 15.5208 31.0312 15.375L30.7656 14.4219L30.9062 14.2656C31.6875 14.4427 32.3229 14.5312 32.8125 14.5312C34.1771 14.5312 35.2708 14.0833 36.0938 13.1875C36.9271 12.2812 37.3438 11.125 37.3438 9.71875C37.3438 8.30208 36.9115 7.17188 36.0469 6.32812C35.1927 5.48438 33.8958 5.0625 32.1562 5.0625C31.2083 5.0625 30.1667 5.23958 29.0312 5.59375C28.9375 6.39583 28.8906 8.33333 28.8906 11.4062V18.6406L28.9062 21.6875C28.9167 22.8646 28.9479 23.625 29 23.9688C29.0521 24.3125 29.125 24.5417 29.2188 24.6562C29.3229 24.7708 29.5156 24.8698 29.7969 24.9531C30.0781 25.026 30.7708 25.0833 31.875 25.125L32 25.2188V26L31.875 26.125C29.2188 26.0417 27.724 26 27.3906 26C27.0365 26 25.5469 26.0417 22.9219 26.125L22.7969 26V25.2188L22.9219 25.125C23.8906 25.0833 24.5365 25.0312 24.8594 24.9688C25.1823 24.9062 25.3958 24.8281 25.5 24.7344C25.6146 24.6302 25.7031 24.4167 25.7656 24.0938C25.8385 23.7708 25.8802 23.0521 25.8906 21.9375L25.9062 18.6406V11.4062L25.875 8.35938C25.8646 7.17188 25.8333 6.40625 25.7812 6.0625C25.7396 5.71875 25.6667 5.48958 25.5625 5.375C25.4688 5.26042 25.2812 5.16667 25 5.09375C24.7188 5.02083 24.026 4.96354 22.9219 4.92188L22.7969 4.8125V4.03125L22.9219 3.92188Z" fill="#EFEDEA"/>
<path d="M42.3906 17.9688L42.5312 18.0938V18.8594L42.4062 18.9688C41.2604 19 40.5469 19.0573 40.2656 19.1406C39.9948 19.224 39.8021 19.3646 39.6875 19.5625C39.5729 19.75 39.5052 20.125 39.4844 20.6875C39.474 21.25 39.4479 22.8385 39.4062 25.4531V32.6562C39.4062 33.6979 39.4219 34.875 39.4531 36.1875C39.4844 37.5 39.5469 38.2656 39.6406 38.4844C39.7448 38.6927 39.9271 38.849 40.1875 38.9531C40.4479 39.0469 41.1875 39.1094 42.4062 39.1406L42.5312 39.25V40.0156L42.3906 40.1406C40.6927 40.0469 39.2135 40 37.9531 40C37.099 40 35.6458 40.0469 33.5938 40.1406L33.4531 40.0156V39.2656L33.5781 39.1406C34.724 39.1094 35.4323 39.0521 35.7031 38.9688C35.9844 38.8854 36.1823 38.75 36.2969 38.5625C36.4115 38.3646 36.4792 37.9792 36.5 37.4062C36.5208 36.8333 36.5469 35.25 36.5781 32.6562V21.1875L31.1875 32.4688C29.8333 35.2917 28.651 37.9479 27.6406 40.4375H27.0312C26.4479 39.0938 25.9688 38.0208 25.5938 37.2188L18.125 21.7031V32.625C18.125 33.6458 18.1354 34.8229 18.1562 36.1562C18.1875 37.4792 18.2552 38.2448 18.3594 38.4531C18.4635 38.6615 18.6458 38.8177 18.9062 38.9219C19.1667 39.026 19.9062 39.0885 21.125 39.1094L21.25 39.2344V39.9844L21.1094 40.125L20.1094 40.0781C19.0781 40.026 18.1927 40 17.4531 40C17.1198 40 15.875 40.0417 13.7188 40.125L13.5938 40V39.25L13.7188 39.1094C14.8646 39.0885 15.5729 39.0365 15.8438 38.9531C16.1146 38.8698 16.3073 38.7292 16.4219 38.5312C16.5469 38.3333 16.6146 37.9635 16.625 37.4219C16.6458 36.8802 16.6719 35.2812 16.7031 32.625V25.4688C16.7031 24.5208 16.6875 23.3698 16.6562 22.0156C16.6354 20.651 16.5729 19.8646 16.4688 19.6562C16.375 19.4375 16.1979 19.276 15.9375 19.1719C15.6771 19.0677 14.9375 19.0052 13.7188 18.9844L13.5938 18.8594V18.1094L13.7344 17.9688C14.4531 18.0208 15.4219 18.0469 16.6406 18.0469C17.7865 18.0469 18.7865 18.0208 19.6406 17.9688C20.5156 19.9896 21.3542 21.8177 22.1562 23.4531L28.0781 35.6094L33.4219 24.4688C34.8698 21.4583 35.8438 19.2917 36.3438 17.9688C37.3438 18.0208 38.3281 18.0469 39.2969 18.0469C40.1719 18.0469 41.2031 18.0208 42.3906 17.9688Z" fill="#EFEDEA"/>
</svg>
